<mxfile host="65bd71144e">
    <diagram id="l-X5Tqu5zQRZ1qrRY45H" name="Trang-1">
        <mxGraphModel dx="1916" dy="729" grid="1" gridSize="10" guides="1" tooltips="1" connect="1" arrows="1" fold="1" page="1" pageScale="1" pageWidth="827" pageHeight="1169" math="0" shadow="0">
            <root>
                <mxCell id="0"/>
                <mxCell id="1" parent="0"/>
                <mxCell id="0WoMqIFztLrsGl_XtHca-1" value="Actor" style="shape=umlActor;verticalLabelPosition=bottom;verticalAlign=top;html=1;outlineConnect=0;" parent="1" vertex="1">
                    <mxGeometry x="110" y="1270" width="30" height="60" as="geometry"/>
                </mxCell>
                <mxCell id="0WoMqIFztLrsGl_XtHca-3" value="Khách hàng" style="rounded=0;whiteSpace=wrap;html=1;" parent="1" vertex="1">
                    <mxGeometry x="60" y="1340" width="120" height="60" as="geometry"/>
                </mxCell>
                <mxCell id="0WoMqIFztLrsGl_XtHca-5" value="" style="rounded=0;whiteSpace=wrap;html=1;" parent="1" vertex="1">
                    <mxGeometry x="290" y="1160" width="360" height="610" as="geometry"/>
                </mxCell>
                <mxCell id="0WoMqIFztLrsGl_XtHca-7" value="bán nhà" style="ellipse;whiteSpace=wrap;html=1;" parent="1" vertex="1">
                    <mxGeometry x="310" y="1270" width="120" height="80" as="geometry"/>
                </mxCell>
                <mxCell id="0WoMqIFztLrsGl_XtHca-9" value="Kí hợp đồng" style="ellipse;whiteSpace=wrap;html=1;" parent="1" vertex="1">
                    <mxGeometry x="420" y="1169" width="120" height="80" as="geometry"/>
                </mxCell>
                <mxCell id="0WoMqIFztLrsGl_XtHca-18" value="&amp;lt;&amp;lt;include&amp;gt;&amp;gt;" style="html=1;verticalAlign=bottom;labelBackgroundColor=none;endArrow=open;endFill=0;dashed=1;rounded=0;entryX=0.5;entryY=1;entryDx=0;entryDy=0;exitX=0.5;exitY=0;exitDx=0;exitDy=0;" parent="1" source="0WoMqIFztLrsGl_XtHca-7" target="0WoMqIFztLrsGl_XtHca-9" edge="1">
                    <mxGeometry width="160" relative="1" as="geometry">
                        <mxPoint x="330" y="1490" as="sourcePoint"/>
                        <mxPoint x="490" y="1490" as="targetPoint"/>
                    </mxGeometry>
                </mxCell>
                <mxCell id="0WoMqIFztLrsGl_XtHca-33" value="Cung cấp thông tin&amp;nbsp;" style="ellipse;whiteSpace=wrap;html=1;" parent="1" vertex="1">
                    <mxGeometry x="470" y="1330" width="120" height="80" as="geometry"/>
                </mxCell>
                <mxCell id="0WoMqIFztLrsGl_XtHca-36" value="&amp;lt;&amp;lt;include&amp;gt;&amp;gt;" style="html=1;verticalAlign=bottom;labelBackgroundColor=none;endArrow=open;endFill=0;dashed=1;rounded=0;entryX=0.583;entryY=0;entryDx=0;entryDy=0;entryPerimeter=0;" parent="1" source="0WoMqIFztLrsGl_XtHca-9" target="0WoMqIFztLrsGl_XtHca-33" edge="1">
                    <mxGeometry width="160" relative="1" as="geometry">
                        <mxPoint x="330" y="1450" as="sourcePoint"/>
                        <mxPoint x="490" y="1450" as="targetPoint"/>
                    </mxGeometry>
                </mxCell>
                <mxCell id="0WoMqIFztLrsGl_XtHca-42" value="" style="endArrow=classic;html=1;rounded=0;exitX=0.672;exitY=1.027;exitDx=0;exitDy=0;exitPerimeter=0;" parent="1" source="0WoMqIFztLrsGl_XtHca-3" target="0WoMqIFztLrsGl_XtHca-56" edge="1">
                    <mxGeometry width="50" height="50" relative="1" as="geometry">
                        <mxPoint x="390" y="1650" as="sourcePoint"/>
                        <mxPoint x="355.7039497698711" y="1533.019678496194" as="targetPoint"/>
                    </mxGeometry>
                </mxCell>
                <mxCell id="0WoMqIFztLrsGl_XtHca-45" value="Chọn căn nhà để mua" style="ellipse;whiteSpace=wrap;html=1;" parent="1" vertex="1">
                    <mxGeometry x="410" y="1640" width="120" height="80" as="geometry"/>
                </mxCell>
                <mxCell id="0WoMqIFztLrsGl_XtHca-51" value="" style="rounded=0;whiteSpace=wrap;html=1;" parent="1" vertex="1">
                    <mxGeometry x="-115" y="770" width="480" height="380" as="geometry"/>
                </mxCell>
                <mxCell id="0WoMqIFztLrsGl_XtHca-24" value="Actor" style="shape=umlActor;verticalLabelPosition=bottom;verticalAlign=top;html=1;outlineConnect=0;shadow=0;" parent="1" vertex="1">
                    <mxGeometry x="120" y="790" width="30" height="60" as="geometry"/>
                </mxCell>
                <mxCell id="0WoMqIFztLrsGl_XtHca-20" value="Actor" style="shape=umlActor;verticalLabelPosition=bottom;verticalAlign=top;html=1;outlineConnect=0;" parent="1" vertex="1">
                    <mxGeometry x="-40" y="1000" width="30" height="60" as="geometry"/>
                </mxCell>
                <mxCell id="0WoMqIFztLrsGl_XtHca-27" value="khách hàng bán nhà" style="rounded=0;whiteSpace=wrap;html=1;" parent="1" vertex="1">
                    <mxGeometry x="-85" y="1070" width="120" height="60" as="geometry"/>
                </mxCell>
                <mxCell id="0WoMqIFztLrsGl_XtHca-21" value="Actor" style="shape=umlActor;verticalLabelPosition=bottom;verticalAlign=top;html=1;outlineConnect=0;" parent="1" vertex="1">
                    <mxGeometry x="210" y="1000" width="30" height="60" as="geometry"/>
                </mxCell>
                <mxCell id="0WoMqIFztLrsGl_XtHca-31" style="edgeStyle=none;rounded=0;orthogonalLoop=1;jettySize=auto;html=1;entryX=0.835;entryY=1;entryDx=0;entryDy=0;entryPerimeter=0;" parent="1" source="0WoMqIFztLrsGl_XtHca-21" target="0WoMqIFztLrsGl_XtHca-26" edge="1">
                    <mxGeometry relative="1" as="geometry"/>
                </mxCell>
                <mxCell id="0WoMqIFztLrsGl_XtHca-26" value="Khách hàng" style="rounded=0;whiteSpace=wrap;html=1;" parent="1" vertex="1">
                    <mxGeometry x="70" y="860" width="120" height="60" as="geometry"/>
                </mxCell>
                <mxCell id="0WoMqIFztLrsGl_XtHca-30" style="rounded=0;orthogonalLoop=1;jettySize=auto;html=1;entryX=0.115;entryY=1.013;entryDx=0;entryDy=0;entryPerimeter=0;" parent="1" source="0WoMqIFztLrsGl_XtHca-20" target="0WoMqIFztLrsGl_XtHca-26" edge="1">
                    <mxGeometry relative="1" as="geometry"/>
                </mxCell>
                <mxCell id="0WoMqIFztLrsGl_XtHca-28" value="khách hàng mua nhà" style="rounded=0;whiteSpace=wrap;html=1;" parent="1" vertex="1">
                    <mxGeometry x="185" y="1070" width="120" height="60" as="geometry"/>
                </mxCell>
                <mxCell id="0WoMqIFztLrsGl_XtHca-55" value="" style="endArrow=classic;html=1;rounded=0;exitX=1;exitY=0.25;exitDx=0;exitDy=0;entryX=0;entryY=0;entryDx=0;entryDy=0;" parent="1" source="0WoMqIFztLrsGl_XtHca-3" target="0WoMqIFztLrsGl_XtHca-7" edge="1">
                    <mxGeometry width="50" height="50" relative="1" as="geometry">
                        <mxPoint x="340" y="1540" as="sourcePoint"/>
                        <mxPoint x="390" y="1490" as="targetPoint"/>
                    </mxGeometry>
                </mxCell>
                <mxCell id="0WoMqIFztLrsGl_XtHca-56" value="Tìm kiếm theo tiêu chí của khách hàng&lt;br&gt;&lt;br&gt;&lt;br&gt;extension points&amp;nbsp;&lt;br&gt;căn nhà tìm kiếm phù hợp với tiêu chí" style="shape=lineEllipse;perimeter=ellipsePerimeter;whiteSpace=wrap;html=1;backgroundOutline=1;shadow=0;" parent="1" vertex="1">
                    <mxGeometry x="340" y="1430" width="240" height="130" as="geometry"/>
                </mxCell>
                <mxCell id="0WoMqIFztLrsGl_XtHca-60" value="" style="endArrow=classic;startArrow=classic;html=1;rounded=0;exitX=1;exitY=0.75;exitDx=0;exitDy=0;" parent="1" source="0WoMqIFztLrsGl_XtHca-3" target="0WoMqIFztLrsGl_XtHca-33" edge="1">
                    <mxGeometry width="50" height="50" relative="1" as="geometry">
                        <mxPoint x="340" y="1320" as="sourcePoint"/>
                        <mxPoint x="390" y="1270" as="targetPoint"/>
                    </mxGeometry>
                </mxCell>
                <mxCell id="aUpXMmrre9InevTT2Pyr-3" value="&amp;lt;&amp;lt;extend&amp;gt;&amp;gt;" style="html=1;verticalAlign=bottom;labelBackgroundColor=none;endArrow=open;endFill=0;dashed=1;rounded=0;exitX=0.5;exitY=0;exitDx=0;exitDy=0;entryX=0.442;entryY=0.991;entryDx=0;entryDy=0;entryPerimeter=0;" parent="1" source="0WoMqIFztLrsGl_XtHca-45" target="0WoMqIFztLrsGl_XtHca-56" edge="1">
                    <mxGeometry width="160" relative="1" as="geometry">
                        <mxPoint x="350" y="1590" as="sourcePoint"/>
                        <mxPoint x="510" y="1590" as="targetPoint"/>
                    </mxGeometry>
                </mxCell>
                <mxCell id="_VpaXnl5ajKzjAwe97Mi-3" value="" style="endArrow=classic;html=1;rounded=0;exitX=0.198;exitY=1.027;exitDx=0;exitDy=0;exitPerimeter=0;entryX=0;entryY=0.5;entryDx=0;entryDy=0;" parent="1" source="0WoMqIFztLrsGl_XtHca-3" target="0WoMqIFztLrsGl_XtHca-45" edge="1">
                    <mxGeometry width="50" height="50" relative="1" as="geometry">
                        <mxPoint x="510" y="1510" as="sourcePoint"/>
                        <mxPoint x="560" y="1460" as="targetPoint"/>
                    </mxGeometry>
                </mxCell>
                <mxCell id="12" value="&lt;span style=&quot;color: rgba(0 , 0 , 0 , 0) ; font-family: monospace ; font-size: 0px ; background-color: rgb(248 , 249 , 250)&quot;&gt;%3CmxGraphModel%3E%3Croot%3E%3CmxCell%20id%3D%220%22%2F%3E%3CmxCell%20id%3D%221%22%20parent%3D%220%22%2F%3E%3CmxCell%20id%3D%222%22%20value%3D%22Kh%C3%A1ch%20h%C3%A0ng%22%20style%3D%22rounded%3D0%3BwhiteSpace%3Dwrap%3Bhtml%3D1%3B%22%20vertex%3D%221%22%20parent%3D%221%22%3E%3CmxGeometry%20x%3D%22700%22%20y%3D%221444%22%20width%3D%22120%22%20height%3D%2260%22%20as%3D%22geometry%22%2F%3E%3C%2FmxCell%3E%3CmxCell%20id%3D%223%22%20value%3D%22web%20bat%20dong%20san%22%20style%3D%22rounded%3D0%3BwhiteSpace%3Dwrap%3Bhtml%3D1%3B%22%20vertex%3D%221%22%20parent%3D%221%22%3E%3CmxGeometry%20x%3D%22800%22%20y%3D%221270%22%20width%3D%22120%22%20height%3D%2260%22%20as%3D%22geometry%22%2F%3E%3C%2FmxCell%3E%3CmxCell%20id%3D%224%22%20value%3D%22Kh%C3%A1ch%20mua%26amp%3Bnbsp%3B%22%20style%3D%22rounded%3D0%3BwhiteSpace%3Dwrap%3Bhtml%3D1%3B%22%20vertex%3D%221%22%20parent%3D%221%22%3E%3CmxGeometry%20x%3D%22820%22%20y%3D%221590%22%20width%3D%22120%22%20height%3D%2260%22%20as%3D%22geometry%22%2F%3E%3C%2FmxCell%3E%3CmxCell%20id%3D%225%22%20value%3D%22kh%C3%A1ch%20b%C3%A1n%22%20style%3D%22rounded%3D0%3BwhiteSpace%3Dwrap%3Bhtml%3D1%3B%22%20vertex%3D%221%22%20parent%3D%221%22%3E%3CmxGeometry%20x%3D%22580%22%20y%3D%221590%22%20width%3D%22120%22%20height%3D%2260%22%20as%3D%22geometry%22%2F%3E%3C%2FmxCell%3E%3CmxCell%20id%3D%226%22%20value%3D%22Extends%22%20style%3D%22endArrow%3Dblock%3BendSize%3D16%3BendFill%3D0%3Bhtml%3D1%3Brounded%3D0%3BexitX%3D0.378%3BexitY%3D0.02%3BexitDx%3D0%3BexitDy%3D0%3BexitPerimeter%3D0%3BentryX%3D0.5%3BentryY%3D1%3BentryDx%3D0%3BentryDy%3D0%3B%22%20edge%3D%221%22%20source%3D%224%22%20target%3D%222%22%20parent%3D%221%22%3E%3CmxGeometry%20width%3D%22160%22%20relative%3D%221%22%20as%3D%22geometry%22%3E%3CmxPoint%20x%3D%22620%22%20y%3D%221540%22%20as%3D%22sourcePoint%22%2F%3E%3CmxPoint%20x%3D%22660%22%20y%3D%221480%22%20as%3D%22targetPoint%22%2F%3E%3C%2FmxGeometry%3E%3C%2FmxCell%3E%3CmxCell%20id%3D%227%22%20value%3D%22Extends%22%20style%3D%22endArrow%3Dblock%3BendSize%3D16%3BendFill%3D0%3Bhtml%3D1%3Brounded%3D0%3BexitX%3D0.432%3BexitY%3D-0.073%3BexitDx%3D0%3BexitDy%3D0%3BexitPerimeter%3D0%3B%22%20edge%3D%221%22%20source%3D%225%22%20target%3D%222%22%20parent%3D%221%22%3E%3CmxGeometry%20width%3D%22160%22%20relative%3D%221%22%20as%3D%22geometry%22%3E%3CmxPoint%20x%3D%22630%22%20y%3D%221550%22%20as%3D%22sourcePoint%22%2F%3E%3CmxPoint%20x%3D%22670%22%20y%3D%221490%22%20as%3D%22targetPoint%22%2F%3E%3C%2FmxGeometry%3E%3C%2FmxCell%3E%3CmxCell%20id%3D%228%22%20value%3D%22%22%20style%3D%22endArrow%3Dclassic%3Bhtml%3D1%3Brounded%3D0%3BexitX%3D0.25%3BexitY%3D0%3BexitDx%3D0%3BexitDy%3D0%3BentryX%3D-0.002%3BentryY%3D0.873%3BentryDx%3D0%3BentryDy%3D0%3BentryPerimeter%3D0%3B%22%20edge%3D%221%22%20source%3D%222%22%20target%3D%223%22%20parent%3D%221%22%3E%3CmxGeometry%20width%3D%2250%22%20height%3D%2250%22%20relative%3D%221%22%20as%3D%22geometry%22%3E%3CmxPoint%20x%3D%22550%22%20y%3D%221510%22%20as%3D%22sourcePoint%22%2F%3E%3CmxPoint%20x%3D%22600%22%20y%3D%221460%22%20as%3D%22targetPoint%22%2F%3E%3C%2FmxGeometry%3E%3C%2FmxCell%3E%3CmxCell%20id%3D%229%22%20value%3D%22mua%20ho%E1%BA%B7c%20b%C3%A1n%20nh%C3%A0%22%20style%3D%22rounded%3D0%3BwhiteSpace%3Dwrap%3Bhtml%3D1%3BstrokeColor%3D%23FFFFFF%3B%22%20vertex%3D%221%22%20parent%3D%221%22%3E%3CmxGeometry%20x%3D%22680%22%20y%3D%221350%22%20width%3D%22120%22%20height%3D%2260%22%20as%3D%22geometry%22%2F%3E%3C%2FmxCell%3E%3CmxCell%20id%3D%2210%22%20value%3D%22%22%20style%3D%22endArrow%3Dopen%3BstartArrow%3Dnone%3BendFill%3D0%3BstartFill%3D0%3BendSize%3D8%3Bhtml%3D1%3BverticalAlign%3Dbottom%3BlabelBackgroundColor%3Dnone%3BstrokeWidth%3D1%3Brounded%3D0%3BexitX%3D0%3BexitY%3D0%3BexitDx%3D0%3BexitDy%3D0%3BentryX%3D0.75%3BentryY%3D1%3BentryDx%3D0%3BentryDy%3D0%3B%22%20edge%3D%221%22%20target%3D%223%22%20parent%3D%221%22%3E%3CmxGeometry%20width%3D%22160%22%20relative%3D%221%22%20as%3D%22geometry%22%3E%3CmxPoint%20x%3D%22960%22%20y%3D%221430%22%20as%3D%22sourcePoint%22%2F%3E%3CmxPoint%20x%3D%22660%22%20y%3D%221480%22%20as%3D%22targetPoint%22%2F%3E%3C%2FmxGeometry%3E%3C%2FmxCell%3E%3CmxCell%20id%3D%2211%22%20value%3D%22association%26lt%3Bbr%26gt%3B%22%20style%3D%22edgeLabel%3Bhtml%3D1%3Balign%3Dcenter%3BverticalAlign%3Dmiddle%3Bresizable%3D0%3Bpoints%3D%5B%5D%3B%22%20vertex%3D%221%22%20connectable%3D%220%22%20parent%3D%2210%22%3E%3CmxGeometry%20x%3D%220.3353%22%20relative%3D%221%22%20as%3D%22geometry%22%3E%3CmxPoint%20y%3D%22-1%22%20as%3D%22offset%22%2F%3E%3C%2FmxGeometry%3E%3C%2FmxCell%3E%3C%2Froot%3E%3C%2FmxGraphModel%3E&lt;/span&gt;" style="text;html=1;align=center;verticalAlign=middle;resizable=0;points=[];autosize=1;strokeColor=none;fillColor=none;" vertex="1" parent="1">
                    <mxGeometry x="-150" y="1940" width="20" height="20" as="geometry"/>
                </mxCell>
                <mxCell id="23" value="Khách hàng" style="rounded=0;whiteSpace=wrap;html=1;" vertex="1" parent="1">
                    <mxGeometry x="-30" y="2004" width="120" height="60" as="geometry"/>
                </mxCell>
                <mxCell id="24" value="web bat dong san" style="rounded=0;whiteSpace=wrap;html=1;" vertex="1" parent="1">
                    <mxGeometry x="80" y="1830" width="120" height="60" as="geometry"/>
                </mxCell>
                <mxCell id="25" value="Công ty bất động sản" style="rounded=0;whiteSpace=wrap;html=1;" vertex="1" parent="1">
                    <mxGeometry x="230" y="1990" width="120" height="60" as="geometry"/>
                </mxCell>
                <mxCell id="26" value="Khách mua&amp;nbsp;" style="rounded=0;whiteSpace=wrap;html=1;" vertex="1" parent="1">
                    <mxGeometry x="90" y="2150" width="120" height="60" as="geometry"/>
                </mxCell>
                <mxCell id="27" value="khách bán" style="rounded=0;whiteSpace=wrap;html=1;" vertex="1" parent="1">
                    <mxGeometry x="-150" y="2150" width="120" height="60" as="geometry"/>
                </mxCell>
                <mxCell id="28" value="Extends" style="endArrow=block;endSize=16;endFill=0;html=1;rounded=0;exitX=0.378;exitY=0.02;exitDx=0;exitDy=0;exitPerimeter=0;entryX=0.5;entryY=1;entryDx=0;entryDy=0;" edge="1" parent="1" source="26" target="23">
                    <mxGeometry width="160" relative="1" as="geometry">
                        <mxPoint x="-110" y="2100" as="sourcePoint"/>
                        <mxPoint x="-70" y="2040" as="targetPoint"/>
                    </mxGeometry>
                </mxCell>
                <mxCell id="29" value="Extends" style="endArrow=block;endSize=16;endFill=0;html=1;rounded=0;exitX=0.432;exitY=-0.073;exitDx=0;exitDy=0;exitPerimeter=0;" edge="1" parent="1" source="27" target="23">
                    <mxGeometry width="160" relative="1" as="geometry">
                        <mxPoint x="-100" y="2110" as="sourcePoint"/>
                        <mxPoint x="-60" y="2050" as="targetPoint"/>
                    </mxGeometry>
                </mxCell>
                <mxCell id="30" value="" style="endArrow=classic;html=1;rounded=0;exitX=0.25;exitY=0;exitDx=0;exitDy=0;entryX=-0.002;entryY=0.873;entryDx=0;entryDy=0;entryPerimeter=0;" edge="1" parent="1" source="23" target="24">
                    <mxGeometry width="50" height="50" relative="1" as="geometry">
                        <mxPoint x="-180" y="2070" as="sourcePoint"/>
                        <mxPoint x="-130" y="2020" as="targetPoint"/>
                    </mxGeometry>
                </mxCell>
                <mxCell id="31" value="mua hoặc bán nhà" style="rounded=0;whiteSpace=wrap;html=1;strokeColor=#FFFFFF;" vertex="1" parent="1">
                    <mxGeometry x="-30" y="1910" width="120" height="60" as="geometry"/>
                </mxCell>
                <mxCell id="32" value="" style="endArrow=open;startArrow=none;endFill=0;startFill=0;endSize=8;html=1;verticalAlign=bottom;labelBackgroundColor=none;strokeWidth=1;rounded=0;exitX=0;exitY=0;exitDx=0;exitDy=0;entryX=0.75;entryY=1;entryDx=0;entryDy=0;" edge="1" parent="1" source="25" target="24">
                    <mxGeometry width="160" relative="1" as="geometry">
                        <mxPoint x="-230" y="2040" as="sourcePoint"/>
                        <mxPoint x="-70" y="2040" as="targetPoint"/>
                    </mxGeometry>
                </mxCell>
                <mxCell id="33" value="association&lt;br&gt;" style="edgeLabel;html=1;align=center;verticalAlign=middle;resizable=0;points=[];" vertex="1" connectable="0" parent="32">
                    <mxGeometry x="0.3353" relative="1" as="geometry">
                        <mxPoint y="-1" as="offset"/>
                    </mxGeometry>
                </mxCell>
                <mxCell id="34" value="Domain model" style="text;html=1;align=center;verticalAlign=middle;resizable=0;points=[];autosize=1;strokeColor=none;fillColor=none;" vertex="1" parent="1">
                    <mxGeometry x="-245" y="1820" width="90" height="20" as="geometry"/>
                </mxCell>
            </root>
        </mxGraphModel>
    </diagram>
</mxfile>